# xmcd CD database file
#
# Track frame offsets:
#	150
#	18405
#	38215
#	60040
#	80897
#	96955
#	117510
#	136612
#	159852
#
# Disc length: 2461 seconds
#
# Revision: 0
# Processed by: cddbd v1.5PL3 Copyright (c) Steve Scherf et al.
# Submitted via: CDex 1.50beta9
#
DISCID=66099b09
DTITLE=増田未亜 - Boys and Girls
DYEAR=1900
DGENRE=Pop
TTITLE0=ハプニング・シンドローム
TTITLE1=PRIVATE ISLAND
TTITLE2=もう一度
TTITLE3=太陽海岸〜終わらない夏
TTITLE4=内気なCOOKIE BOY
TTITLE5=展覧会の絵
TTITLE6=愛がいちばん
TTITLE7=スクールデイズ
TTITLE8=I'll
EXTD=
EXTT0=
EXTT1=
EXTT2=
EXTT3=
EXTT4=
EXTT5=
EXTT6=
EXTT7=
EXTT8=
PLAYORDER=
